<svg xmlns="http://www.w3.org/2000/svg" fill="none" viewBox="0 0 32 32"><defs><linearGradient id="neuecast-unmasked__a" x1="0" x2="32" y1="0" y2="32" gradientUnits="userSpaceOnUse"><stop stop-color="#333"/><stop offset="1" stop-color="#0F0F0F"/></linearGradient></defs><path fill="url(#neuecast-unmasked__a)" d="M0 0h32v32H0z"/><path fill="#fff" d="M17.59375 18.28125h1.21875a.1875.1875 0 0 1 .1875.1875V23.25a.1875.1875 0 0 1-.1875.1875h-1.21875a.1875.1875 0 0 1-.1875-.1875v-4.78125a.1875.1875 0 0 1 .1875-.1875M19.8125 20h1.21875a.1875.1875 0 0 1 .1875.1875V23.25a.1875.1875 0 0 1-.1875.1875H19.8125a.1875.1875 0 0 1-.1875-.1875v-3.0625A.1875.1875 0 0 1 19.8125 20m2.21875-3.4375H23.25a.1875.1875 0 0 1 .1875.1875v6.5a.1875.1875 0 0 1-.1875.1875h-1.21875a.1875.1875 0 0 1-.1875-.1875v-6.5a.1875.1875 0 0 1 .1875-.1875"/></svg>
