<svg xmlns="http://www.w3.org/2000/svg" viewBox="0 0 32 32">
  <!-- The glyph is Pocket Casts' own, lifted from the badge SVGs on pocketcasts.com/podcast-producers (Badges/pocketcasts_tiny_light, group "Glyph"); plate #F43E37 as their roundel. Sized to the iOS app's icon (Pocket Casts 8.20, Assets.car AppIcon 1024, byte-identical to the App Store artwork): the mark is 690 px at 1024, centred — the native Mac app this bundle was decanted from draws it at 734. The mark's shading is the app's own vertical ramp (the shipped Group 1.png's gray = 230.93 + 0.02779*y at 1024), the same gradient the bundle's Assets/icon.svg carries — measured 2026-09-18, ledger "pocketcasts: PNG layers vs the official vector under the loss bar". -->
  <defs><linearGradient id="pocketcasts-mark" x1="0" x2="0" y1="0" y2="1"><stop stop-color="#EBEBEB"/><stop offset=".9839" stop-color="#fff"/></linearGradient></defs>
  <path fill="#F43E37" d="M0 0h32v32H0z"/><g transform="translate(5.2188 5.2188) scale(1.99039)"><path fill="url(#pocketcasts-mark)" fill-rule="evenodd" d="M0,5.41666667 C0,2.42512427 2.42512427,0 5.41666667,0 C8.40820906,0 10.8333333,2.42512427 10.8333333,5.41666667 L9.47916667,5.41666667 C9.47916667,3.17300987 7.66032346,1.35416667 5.41666667,1.35416667 C3.17300987,1.35416667 1.35416667,3.17300987 1.35416667,5.41666667 C1.35416667,7.66032346 3.17300987,9.47916667 5.41666667,9.47916667 L5.41666667,10.8333333 C2.42512427,10.8333333 0,8.40820906 0,5.41666667 Z M5.41666667,8.66666667 C3.62174123,8.66666667 2.16666667,7.2115921 2.16666667,5.41666667 C2.16666667,3.62174123 3.62174123,2.16666667 5.41666667,2.16666667 C7.2115921,2.16666667 8.66666667,3.62174123 8.66666667,5.41666667 L7.48484848,5.41666667 C7.48484848,4.27444139 6.55889194,3.34848485 5.41666667,3.34848485 C4.27444139,3.34848485 3.34848485,4.27444139 3.34848485,5.41666667 C3.34848485,6.55889194 4.27444139,7.48484848 5.41666667,7.48484848 L5.41666667,8.66666667 Z"/></g>
</svg>
