<svg xmlns="http://www.w3.org/2000/svg" viewBox="0 0 32 32">
  <!-- Queue's blue is a conic (sweep) gradient cut by the band: colour is linear in the clockwise angle from the cut (rms 1.37 vs 17.78 for any linear gradient — pipeline/README.md). SVG has no conic primitive, so it is a fan of gradient wedges clipped by the mark. No straight cut is hidden at every radius (the band spans 30-83 deg at the hole, 15-27 mid-radius), so the two end wedges meet along the band's CENTRELINE. -->
  <defs><clipPath id="mark"><path d="M24.783 21.755A3.688 3.688 0 0 1 21.25 26.5H16A10.5 10.5 0 1 1 25.684 20.059A5.219 5.219 0 0 0 21.25 17.594H18.688A3.125 3.125 0 1 0 16 19.125H21.25A3.688 3.688 0 0 1 24.783 21.755Z"/></clipPath><linearGradient id="wd" x1="23.128" y1="19.632" x2="21.142" y2="22.128" gradientUnits="userSpaceOnUse"><stop stop-color="#3761D3"/><stop offset="1" stop-color="#3F68D6"/></linearGradient><linearGradient id="w0" x1="21.142" y1="22.128" x2="20" y2="22.928" gradientUnits="userSpaceOnUse"><stop stop-color="#3F68D6"/><stop offset="1" stop-color="#436BD7"/></linearGradient><linearGradient id="w1" x1="20" y1="22.928" x2="18.736" y2="23.518" gradientUnits="userSpaceOnUse"><stop stop-color="#436BD7"/><stop offset="1" stop-color="#476ED8"/></linearGradient><linearGradient id="w2" x1="18.736" y1="23.518" x2="17.389" y2="23.878" gradientUnits="userSpaceOnUse"><stop stop-color="#476ED8"/><stop offset="1" stop-color="#4A71D9"/></linearGradient><linearGradient id="w3" x1="17.389" y1="23.878" x2="16" y2="24" gradientUnits="userSpaceOnUse"><stop stop-color="#4A71D9"/><stop offset="1" stop-color="#4E74DA"/></linearGradient><linearGradient id="w4" x1="16" y1="24" x2="14.611" y2="23.878" gradientUnits="userSpaceOnUse"><stop stop-color="#4E74DA"/><stop offset="1" stop-color="#5277DB"/></linearGradient><linearGradient id="w5" x1="14.611" y1="23.878" x2="13.264" y2="23.518" gradientUnits="userSpaceOnUse"><stop stop-color="#5277DB"/><stop offset="1" stop-color="#557ADC"/></linearGradient><linearGradient id="w6" x1="13.264" y1="23.518" x2="12" y2="22.928" gradientUnits="userSpaceOnUse"><stop stop-color="#557ADC"/><stop offset="1" stop-color="#597DDE"/></linearGradient><linearGradient id="w7" x1="12" y1="22.928" x2="10.858" y2="22.128" gradientUnits="userSpaceOnUse"><stop stop-color="#597DDE"/><stop offset="1" stop-color="#5D80DF"/></linearGradient><linearGradient id="w8" x1="10.858" y1="22.128" x2="9.872" y2="21.142" gradientUnits="userSpaceOnUse"><stop stop-color="#5D80DF"/><stop offset="1" stop-color="#6083E0"/></linearGradient><linearGradient id="w9" x1="9.872" y1="21.142" x2="9.072" y2="20" gradientUnits="userSpaceOnUse"><stop stop-color="#6083E0"/><stop offset="1" stop-color="#6486E1"/></linearGradient><linearGradient id="w10" x1="9.072" y1="20" x2="8.482" y2="18.736" gradientUnits="userSpaceOnUse"><stop stop-color="#6486E1"/><stop offset="1" stop-color="#6889E2"/></linearGradient><linearGradient id="w11" x1="8.482" y1="18.736" x2="8.122" y2="17.389" gradientUnits="userSpaceOnUse"><stop stop-color="#6889E2"/><stop offset="1" stop-color="#6B8CE3"/></linearGradient><linearGradient id="w12" x1="8.122" y1="17.389" x2="8" y2="16" gradientUnits="userSpaceOnUse"><stop stop-color="#6B8CE3"/><stop offset="1" stop-color="#6F8EE4"/></linearGradient><linearGradient id="w13" x1="8" y1="16" x2="8.122" y2="14.611" gradientUnits="userSpaceOnUse"><stop stop-color="#6F8EE4"/><stop offset="1" stop-color="#7391E6"/></linearGradient><linearGradient id="w14" x1="8.122" y1="14.611" x2="8.482" y2="13.264" gradientUnits="userSpaceOnUse"><stop stop-color="#7391E6"/><stop offset="1" stop-color="#7694E7"/></linearGradient><linearGradient id="w15" x1="8.482" y1="13.264" x2="9.072" y2="12" gradientUnits="userSpaceOnUse"><stop stop-color="#7694E7"/><stop offset="1" stop-color="#7A97E8"/></linearGradient><linearGradient id="w16" x1="9.072" y1="12" x2="9.872" y2="10.858" gradientUnits="userSpaceOnUse"><stop stop-color="#7A97E8"/><stop offset="1" stop-color="#7E9AE9"/></linearGradient><linearGradient id="w17" x1="9.872" y1="10.858" x2="10.858" y2="9.872" gradientUnits="userSpaceOnUse"><stop stop-color="#7E9AE9"/><stop offset="1" stop-color="#819DEA"/></linearGradient><linearGradient id="w18" x1="10.858" y1="9.872" x2="12" y2="9.072" gradientUnits="userSpaceOnUse"><stop stop-color="#819DEA"/><stop offset="1" stop-color="#85A0EB"/></linearGradient><linearGradient id="w19" x1="12" y1="9.072" x2="13.264" y2="8.482" gradientUnits="userSpaceOnUse"><stop stop-color="#85A0EB"/><stop offset="1" stop-color="#89A3EC"/></linearGradient><linearGradient id="w20" x1="13.264" y1="8.482" x2="14.611" y2="8.122" gradientUnits="userSpaceOnUse"><stop stop-color="#89A3EC"/><stop offset="1" stop-color="#8CA6EE"/></linearGradient><linearGradient id="w21" x1="14.611" y1="8.122" x2="16" y2="8" gradientUnits="userSpaceOnUse"><stop stop-color="#8CA6EE"/><stop offset="1" stop-color="#90A9EF"/></linearGradient><linearGradient id="w22" x1="16" y1="8" x2="17.389" y2="8.122" gradientUnits="userSpaceOnUse"><stop stop-color="#90A9EF"/><stop offset="1" stop-color="#94ACF0"/></linearGradient><linearGradient id="w23" x1="17.389" y1="8.122" x2="18.736" y2="8.482" gradientUnits="userSpaceOnUse"><stop stop-color="#94ACF0"/><stop offset="1" stop-color="#97AFF1"/></linearGradient><linearGradient id="w24" x1="18.736" y1="8.482" x2="20" y2="9.072" gradientUnits="userSpaceOnUse"><stop stop-color="#97AFF1"/><stop offset="1" stop-color="#9BB2F2"/></linearGradient><linearGradient id="w25" x1="20" y1="9.072" x2="21.142" y2="9.872" gradientUnits="userSpaceOnUse"><stop stop-color="#9BB2F2"/><stop offset="1" stop-color="#9FB5F3"/></linearGradient><linearGradient id="w26" x1="21.142" y1="9.872" x2="22.128" y2="10.858" gradientUnits="userSpaceOnUse"><stop stop-color="#9FB5F3"/><stop offset="1" stop-color="#A2B8F4"/></linearGradient><linearGradient id="w27" x1="22.128" y1="10.858" x2="22.928" y2="12" gradientUnits="userSpaceOnUse"><stop stop-color="#A2B8F4"/><stop offset="1" stop-color="#A6BBF6"/></linearGradient><linearGradient id="w28" x1="22.928" y1="12" x2="23.518" y2="13.264" gradientUnits="userSpaceOnUse"><stop stop-color="#A6BBF6"/><stop offset="1" stop-color="#AABEF7"/></linearGradient><linearGradient id="w29" x1="23.518" y1="13.264" x2="23.878" y2="14.611" gradientUnits="userSpaceOnUse"><stop stop-color="#AABEF7"/><stop offset="1" stop-color="#ADC1F8"/></linearGradient><linearGradient id="w30" x1="23.878" y1="14.611" x2="24" y2="16" gradientUnits="userSpaceOnUse"><stop stop-color="#ADC1F8"/><stop offset="1" stop-color="#B1C4F9"/></linearGradient><linearGradient id="w31" x1="24" y1="16" x2="23.878" y2="17.389" gradientUnits="userSpaceOnUse"><stop stop-color="#B1C4F9"/><stop offset="1" stop-color="#B5C7FA"/></linearGradient><linearGradient id="wl" x1="23.878" y1="17.389" x2="23.128" y2="19.632" gradientUnits="userSpaceOnUse"><stop stop-color="#B5C7FA"/><stop offset="1" stop-color="#BBCCFC"/></linearGradient><!-- Inner shadow: the artwork's white plate casts a downward shadow onto the blue. Grid-searched in Chrome against the artwork, scored within the mark: black, dy .3, sigma .3, opacity .2 -> RMSE 3.67 (plain 6.46; blue tints and any larger offset/blur/opacity score worse) — pipeline/README.md. --><filter id="is" x="-.2" y="-.2" width="1.4" height="1.4" color-interpolation-filters="sRGB"><feFlood flood-color="#000" flood-opacity=".2" result="f"/><feComposite in="f" in2="SourceAlpha" operator="out" result="inv"/><feGaussianBlur in="inv" stdDeviation=".3" result="b"/><feOffset in="b" dy=".3" result="o"/><feComposite in="o" in2="SourceAlpha" operator="in" result="s"/><feMerge><feMergeNode in="SourceGraphic"/><feMergeNode in="s"/></feMerge></filter><!-- Pillow emboss on the plate: the artwork lights the plate from the top (up-facing edges 255 on the 242 plate, down-facing edges 222). Two inner shadows on the knocked-out plate, grid-searched in Chrome against the artwork over the plate near the mark: white dy .3 sigma .15 opacity 1, black dy -.4 sigma .3 opacity .1 -> RMSE 1.21 (plain 4.58) — pipeline/README.md. The plate is oversized so the canvas edge casts nothing inside the viewBox. --><filter id="pe" x="-.2" y="-.2" width="1.4" height="1.4" color-interpolation-filters="sRGB"><feFlood flood-color="#fff" result="fh"/><feComposite in="fh" in2="SourceAlpha" operator="out" result="ih"/><feGaussianBlur in="ih" stdDeviation=".15" result="bh"/><feOffset in="bh" dy=".3" result="oh"/><feComposite in="oh" in2="SourceAlpha" operator="in" result="h"/><feFlood flood-color="#000" flood-opacity=".1" result="fs"/><feComposite in="fs" in2="SourceAlpha" operator="out" result="is"/><feGaussianBlur in="is" stdDeviation=".3" result="bs"/><feOffset in="bs" dy="-.4" result="os"/><feComposite in="os" in2="SourceAlpha" operator="in" result="s"/><feMerge><feMergeNode in="SourceGraphic"/><feMergeNode in="h"/><feMergeNode in="s"/></feMerge></filter></defs>
  <g filter="url(#pe)"><path fill="#F2F2F2" fill-rule="evenodd" d="M-4-4h40v40H-4zM24.783 21.755A3.688 3.688 0 0 1 21.25 26.5H16A10.5 10.5 0 1 1 25.684 20.059A5.219 5.219 0 0 0 21.25 17.594H18.688A3.125 3.125 0 1 0 16 19.125H21.25A3.688 3.688 0 0 1 24.783 21.755Z"/></g><g filter="url(#is)"><g clip-path="url(#mark)"><path fill="url(#wd)" d="M16 16V18.359H21.25A4.453 4.453 0 0 1 25.703 22.812V26.092A14.0 14.0 0 0 1 24.886 26.818Z"/><path fill="url(#w0)" d="M16 16L24.999 26.725A14.0 14.0 0 0 1 22.873 28.197Z"/><path fill="url(#w1)" d="M16 16L23 28.124A14.0 14.0 0 0 1 20.65 29.205Z"/><path fill="url(#w2)" d="M16 16L20.788 29.156A14.0 14.0 0 0 1 18.287 29.812Z"/><path fill="url(#w3)" d="M16 16L18.431 29.787A14.0 14.0 0 0 1 15.853 29.999Z"/><path fill="url(#w4)" d="M16 16L16 30A14.0 14.0 0 0 1 13.425 29.761Z"/><path fill="url(#w5)" d="M16 16L13.569 29.787A14.0 14.0 0 0 1 11.074 29.105Z"/><path fill="url(#w6)" d="M16 16L11.212 29.156A14.0 14.0 0 0 1 8.873 28.05Z"/><path fill="url(#w7)" d="M16 16L9 28.124A14.0 14.0 0 0 1 6.889 26.63Z"/><path fill="url(#w8)" d="M16 16L7.001 26.725A14.0 14.0 0 0 1 5.182 24.886Z"/><path fill="url(#w9)" d="M16 16L5.275 24.999A14.0 14.0 0 0 1 3.803 22.873Z"/><path fill="url(#w10)" d="M16 16L3.876 23A14.0 14.0 0 0 1 2.795 20.65Z"/><path fill="url(#w11)" d="M16 16L2.844 20.788A14.0 14.0 0 0 1 2.188 18.287Z"/><path fill="url(#w12)" d="M16 16L2.213 18.431A14.0 14.0 0 0 1 2.001 15.853Z"/><path fill="url(#w13)" d="M16 16L2 16A14.0 14.0 0 0 1 2.239 13.425Z"/><path fill="url(#w14)" d="M16 16L2.213 13.569A14.0 14.0 0 0 1 2.895 11.074Z"/><path fill="url(#w15)" d="M16 16L2.844 11.212A14.0 14.0 0 0 1 3.95 8.873Z"/><path fill="url(#w16)" d="M16 16L3.876 9A14.0 14.0 0 0 1 5.37 6.889Z"/><path fill="url(#w17)" d="M16 16L5.275 7.001A14.0 14.0 0 0 1 7.114 5.182Z"/><path fill="url(#w18)" d="M16 16L7.001 5.275A14.0 14.0 0 0 1 9.127 3.803Z"/><path fill="url(#w19)" d="M16 16L9 3.876A14.0 14.0 0 0 1 11.35 2.795Z"/><path fill="url(#w20)" d="M16 16L11.212 2.844A14.0 14.0 0 0 1 13.713 2.188Z"/><path fill="url(#w21)" d="M16 16L13.569 2.213A14.0 14.0 0 0 1 16.147 2.001Z"/><path fill="url(#w22)" d="M16 16L16 2A14.0 14.0 0 0 1 18.575 2.239Z"/><path fill="url(#w23)" d="M16 16L18.431 2.213A14.0 14.0 0 0 1 20.926 2.895Z"/><path fill="url(#w24)" d="M16 16L20.788 2.844A14.0 14.0 0 0 1 23.127 3.95Z"/><path fill="url(#w25)" d="M16 16L23 3.876A14.0 14.0 0 0 1 25.111 5.37Z"/><path fill="url(#w26)" d="M16 16L24.999 5.275A14.0 14.0 0 0 1 26.818 7.114Z"/><path fill="url(#w27)" d="M16 16L26.725 7.001A14.0 14.0 0 0 1 28.197 9.127Z"/><path fill="url(#w28)" d="M16 16L28.124 9A14.0 14.0 0 0 1 29.205 11.35Z"/><path fill="url(#w29)" d="M16 16L29.156 11.212A14.0 14.0 0 0 1 29.812 13.713Z"/><path fill="url(#w30)" d="M16 16L29.787 13.569A14.0 14.0 0 0 1 29.999 16.147Z"/><path fill="url(#w31)" d="M16 16L30 16A14.0 14.0 0 0 1 29.761 18.575Z"/><path fill="url(#wl)" d="M16 16L29.787 18.431A14.0 14.0 0 0 1 25.703 26.092V22.812A4.453 4.453 0 0 0 21.25 18.359H16Z"/></g></g>
</svg>
