<svg xmlns="http://www.w3.org/2000/svg" fill="none" viewBox="0 0 32 32"><defs><linearGradient id="icatcher-material-1-fade" gradientUnits="userSpaceOnUse" x1="0" x2="0" y1="4.0000" y2="28.4688"><stop offset="0.050" stop-color="#fff" stop-opacity="0.988"/><stop offset="0.150" stop-color="#fff" stop-opacity="0.980"/><stop offset="0.250" stop-color="#fff" stop-opacity="0.952"/><stop offset="0.350" stop-color="#fff" stop-opacity="0.909"/><stop offset="0.450" stop-color="#fff" stop-opacity="0.868"/><stop offset="0.550" stop-color="#fff" stop-opacity="0.806"/><stop offset="0.650" stop-color="#fff" stop-opacity="0.744"/><stop offset="0.750" stop-color="#fff" stop-opacity="0.674"/><stop offset="0.850" stop-color="#fff" stop-opacity="0.607"/><stop offset="0.950" stop-color="#fff" stop-opacity="0.532"/></linearGradient><mask id="icatcher-material-1-mask" maskUnits="userSpaceOnUse" x="0" y="0" width="32" height="32"><rect width="32" height="32" fill="url(#icatcher-material-1-fade)"/></mask><filter id="icatcher-material-1-shadow" filterUnits="userSpaceOnUse" x="-8" y="-8" width="48" height="48"><feGaussianBlur in="SourceAlpha" stdDeviation="1.0000" result="b"/><feOffset in="b" dy="1.0000" result="o"/><feFlood flood-color="#000" flood-opacity="0.043" result="c"/><feComposite in="c" in2="o" operator="in"/></filter></defs><path fill="color(display-p3 .1647 .3373 .6549)" d="M0 0h32v32H0z"/><use href="#icatcher-material-1-layer" filter="url(#icatcher-material-1-shadow)"/><g mask="url(#icatcher-material-1-mask)"><g id="icatcher-material-1-layer"><path fill="#fff" d="M9.438 4c10.39 0 18.812 8.423 18.812 18.812 0 1.799-.253 3.54-.724 5.188L23.248 28C23.756 26.499 24.031 24.891 24.031 23.219c0-8.232-6.674-14.906-14.906-14.906-1.919 0-3.753.363-5.438 1.023l0-4.44C5.5 4.314 7.432 4 9.438 4"/><path fill="#fff" d="M8.844 11.188c6.438 0 11.656 5.219 11.656 11.656 0 1.851-.432 3.602-1.2 5.156L15.086 28C16.13 26.629 16.75 24.918 16.75 23.062c0-4.505-3.652-8.156-8.156-8.156-1.842 0-3.541.611-4.906 1.64L3.688 12.387C5.242 11.619 6.992 11.188 8.844 11.188"/><path fill="#fff" d="M8.906 17.438c3.055 0 5.531 2.476 5.531 5.531s-2.476 5.531-5.531 5.531-5.531-2.476-5.531-5.531 2.476-5.531 5.531-5.531m0 1.125c-2.433 0-4.406 1.973-4.406 4.406s1.973 4.406 4.406 4.406 4.406-1.973 4.406-4.406-1.973-4.406-4.406-4.406"/><path fill="#fff" d="M11.395 22.462c.469.262.469.938 0 1.2l-3.81 2.13C7.127 26.049 6.562 25.717 6.562 25.192L6.562 20.933c0-.525.565-.856 1.023-.6z"/></g></g></svg>
